<?xml version="1.0" encoding="UTF-8"?>
<svg id="_图层_2" data-name="图层_2" xmlns="http://www.w3.org/2000/svg" viewBox="0 0 57.71 56.73">
  <defs>
    <style>
      .cls-1 {
        fill: none;
        stroke: #231815;
        stroke-miterlimit: 10;
      }
    </style>
  </defs>
  <g id="_图层_1-2" data-name="图层_1">
    <path class="cls-1" d="M4.28,14.2c1.25-2.16,3.28-1.15,5.87-3.62,3.06-2.92,1.84-5.89,4.3-7.14,2.48-1.26,4.22,1.49,7.92.49,3.24-.87,3.47-3.39,6.07-3.42,2.34-.03,2.55,2.01,5.77,3.03,4.02,1.28,5.82-1.21,8.32.29,2.48,1.5,1.14,4.23,4.01,6.95,2.68,2.54,5.21,1.44,6.46,3.72,1.15,2.11-.82,3.41-.1,6.65.87,3.95,4.29,4.26,4.3,7.14.02,2.9-3.45,3.25-4.3,7.24-.7,3.27,1.28,4.61.1,6.75-1.13,2.05-3.38,1.57-5.97,3.52-3.29,2.48-1.66,5.81-4.21,7.24-2.47,1.39-4.2-1.2-8.09-.07-3.32.97-3.59,3.31-6.07,3.26-2.48-.04-2.65-2.39-5.87-3.39-3.85-1.19-5.76,1.49-8.22.07-2.48-1.44-1.09-4.48-4.04-7.17-2.51-2.29-4.66-1.16-6-3.26-1.42-2.23.76-3.9-.26-7.5-1.03-3.64-3.81-3.89-3.78-6.52.03-2.57,2.69-2.73,3.72-6.2,1.11-3.73-1.39-5.54.07-8.05Z"/>
  </g>
</svg>